<svg width="17" height="15" viewBox="0 0 17 15" fill="none" xmlns="http://www.w3.org/2000/svg">
<path d="M9.20833 5C9.77192 5 10.3124 5.19754 10.7109 5.54917C11.1095 5.90081 11.3333 6.37772 11.3333 6.875C11.3333 7.04076 11.408 7.19973 11.5408 7.31694C11.6736 7.43415 11.8538 7.5 12.0417 7.5C12.2295 7.5 12.4097 7.43415 12.5425 7.31694C12.6754 7.19973 12.75 7.04076 12.75 6.875C12.75 6.0462 12.3769 5.25134 11.7127 4.66529C11.0485 4.07924 10.1476 3.75 9.20833 3.75C9.02047 3.75 8.8403 3.81585 8.70747 3.93306C8.57463 4.05027 8.5 4.20924 8.5 4.375C8.5 4.54076 8.57463 4.69973 8.70747 4.81694C8.8403 4.93415 9.02047 5 9.20833 5Z" fill="#242424"/>
<path d="M9.20833 2.5C10.5234 2.5 11.7845 2.96094 12.7144 3.78141C13.6443 4.60188 14.1667 5.71468 14.1667 6.875C14.1667 7.04076 14.2413 7.19973 14.3741 7.31694C14.507 7.43415 14.6871 7.5 14.875 7.5C15.0629 7.5 15.243 7.43415 15.3759 7.31694C15.5087 7.19973 15.5833 7.04076 15.5833 6.875C15.5833 5.38316 14.9117 3.95242 13.7161 2.89752C12.5206 1.84263 10.8991 1.25 9.20833 1.25C9.02047 1.25 8.8403 1.31585 8.70747 1.43306C8.57463 1.55027 8.5 1.70924 8.5 1.875C8.5 2.04076 8.57463 2.19973 8.70747 2.31694C8.8403 2.43415 9.02047 2.5 9.20833 2.5Z" fill="#242424"/>
<path d="M15.4061 9.94375C15.3671 9.84342 15.2999 9.75348 15.2107 9.68241C15.1214 9.61134 15.0132 9.56147 14.8961 9.5375L10.6461 8.68125C10.5307 8.65817 10.4107 8.66095 10.2968 8.68934C10.183 8.71772 10.079 8.77081 9.99442 8.84375C9.89525 8.925 9.88817 8.93125 9.42775 9.70625C7.90002 9.0851 6.67588 8.00054 5.97817 6.65C6.87775 6.25 6.88484 6.25 6.97692 6.15625C7.05959 6.0816 7.11975 5.98987 7.15192 5.88943C7.18409 5.78899 7.18724 5.68304 7.16109 5.58125L6.19067 1.875C6.1635 1.77169 6.10699 1.67617 6.02644 1.59744C5.94589 1.51872 5.84397 1.45938 5.73025 1.425C5.56483 1.37287 5.39402 1.33519 5.22025 1.3125C5.04122 1.27587 4.85853 1.25494 4.67484 1.25C3.81067 1.25 2.9819 1.5529 2.37085 2.09207C1.75979 2.63124 1.4165 3.3625 1.4165 4.125C1.42025 6.67669 2.57072 9.12293 4.61562 10.9272C6.66052 12.7316 9.43292 13.7467 12.3248 13.75C12.7527 13.75 13.1764 13.6756 13.5717 13.5312C13.9671 13.3867 14.3263 13.1749 14.6288 12.9079C14.9314 12.641 15.1714 12.324 15.3351 11.9752C15.4989 11.6264 15.5832 11.2526 15.5832 10.875C15.5834 10.7159 15.5692 10.5571 15.5407 10.4C15.5109 10.2448 15.4659 10.0921 15.4061 9.94375ZM12.3248 12.5C9.80807 12.4983 7.39491 11.6155 5.61529 10.0452C3.83566 8.47493 2.83505 6.34568 2.83317 4.125C2.83504 3.69453 3.02967 3.28216 3.37464 2.97777C3.71962 2.67338 4.18697 2.50165 4.67484 2.5H4.90859L5.6665 5.4L5.284 5.575C4.67484 5.85625 4.19317 6.08125 4.44817 6.56875C4.86341 7.60599 5.5353 8.54858 6.41502 9.32805C7.29475 10.1075 8.36021 10.7043 9.534 11.075C10.129 11.2875 10.3628 10.8938 10.6815 10.35L10.8869 10.0063L14.1665 10.6688V10.875C14.1646 11.3055 13.97 11.7178 13.625 12.0222C13.2801 12.3266 12.8127 12.4984 12.3248 12.5Z" fill="#242424"/>
</svg>
