<svg width="44" height="44" viewBox="0 0 44 44" fill="none" xmlns="http://www.w3.org/2000/svg">
<path d="M26 16.6V22.4H31.2C31.6 22.4 31.8 22.8 31.8 23.2L31 27C31 27.2 30.6 27.4 30.4 27.4H26V42H20V27.6H16.6C16.2 27.6 16 27.4 16 27V23.2C16 22.8 16.2 22.6 16.6 22.6H20V16C20 12.6 22.6 10 26 10H31.4C31.8 10 32 10.2 32 10.6V15.4C32 15.8 31.8 16 31.4 16H26.6C26.2 16 26 16.2 26 16.6Z" stroke="#FDFDFD" stroke-width="3" stroke-miterlimit="10" stroke-linecap="round"/>
<path d="M28 42H16C6 42 2 38 2 28V16C2 6 6 2 16 2H28C38 2 42 6 42 16V28C42 38 38 42 28 42Z" stroke="#FDFDFD" stroke-width="3" stroke-linecap="round" stroke-linejoin="round"/>
</svg>
