<svg width="36" height="28" viewBox="0 0 36 28" fill="none" xmlns="http://www.w3.org/2000/svg">
<path d="M34.2221 21.7778H20.9999C20.5873 21.7778 20.1917 21.9417 19.8999 22.2334C19.6082 22.5252 19.4443 22.9208 19.4443 23.3334C19.4443 23.7459 19.6082 24.1416 19.8999 24.4333C20.1917 24.7251 20.5873 24.8889 20.9999 24.8889H34.2221C34.6347 24.8889 35.0303 24.7251 35.3221 24.4333C35.6138 24.1416 35.7777 23.7459 35.7777 23.3334C35.7777 22.9208 35.6138 22.5252 35.3221 22.2334C35.0303 21.9417 34.6347 21.7778 34.2221 21.7778Z" fill="black"/>
<path d="M35.7775 4.66664C35.7775 4.25408 35.6136 3.85842 35.3218 3.5667C35.0301 3.27497 34.6345 3.11108 34.2219 3.11108H17.8886C17.476 3.11108 17.0803 3.27497 16.7886 3.5667C16.4969 3.85842 16.333 4.25408 16.333 4.66664C16.333 5.0792 16.4969 5.47486 16.7886 5.76658C17.0803 6.05831 17.476 6.2222 17.8886 6.2222H34.2219C34.6345 6.2222 35.0301 6.05831 35.3218 5.76658C35.6136 5.47486 35.7775 5.0792 35.7775 4.66664Z" fill="black"/>
<path d="M1.55556 6.22223H5.71667C6.08362 7.26012 6.80566 8.13487 7.75519 8.69188C8.70472 9.24889 9.82059 9.45229 10.9056 9.26614C11.9906 9.07998 12.9748 8.51625 13.6844 7.67459C14.3939 6.83293 14.7831 5.76752 14.7831 4.66668C14.7831 3.56583 14.3939 2.50042 13.6844 1.65876C12.9748 0.817098 11.9906 0.253372 10.9056 0.0672164C9.82059 -0.118939 8.70472 0.0844628 7.75519 0.641472C6.80566 1.19848 6.08362 2.07323 5.71667 3.11112H1.55556C1.143 3.11112 0.747335 3.27501 0.455612 3.56673C0.163888 3.85846 0 4.25412 0 4.66668C0 5.07924 0.163888 5.4749 0.455612 5.76662C0.747335 6.05834 1.143 6.22223 1.55556 6.22223ZM10.1111 3.11112C10.4188 3.11112 10.7195 3.20235 10.9753 3.37328C11.2311 3.54421 11.4305 3.78715 11.5483 4.07139C11.666 4.35563 11.6968 4.6684 11.6368 4.97015C11.5768 5.2719 11.4286 5.54907 11.2111 5.76662C10.9935 5.98417 10.7163 6.13232 10.4146 6.19234C10.1128 6.25236 9.80007 6.22156 9.51583 6.10382C9.23159 5.98609 8.98864 5.78671 8.81771 5.5309C8.64679 5.27509 8.55556 4.97434 8.55556 4.66668C8.55556 4.25412 8.71944 3.85846 9.01117 3.56673C9.30289 3.27501 9.69855 3.11112 10.1111 3.11112Z" fill="black"/>
<path d="M34.2226 12.4445H28.5059C28.1389 11.4066 27.4169 10.5319 26.4674 9.97485C25.5178 9.41784 24.402 9.21443 23.317 9.40059C22.232 9.58675 21.2477 10.1505 20.5382 10.9921C19.8286 11.8338 19.4395 12.8992 19.4395 14.0001C19.4395 15.1009 19.8286 16.1663 20.5382 17.008C21.2477 17.8496 22.232 18.4134 23.317 18.5995C24.402 18.7857 25.5178 18.5823 26.4674 18.0253C27.4169 17.4682 28.1389 16.5935 28.5059 15.5556H34.2226C34.6351 15.5556 35.0308 15.3917 35.3225 15.1C35.6142 14.8083 35.7781 14.4126 35.7781 14.0001C35.7781 13.5875 35.6142 13.1918 35.3225 12.9001C35.0308 12.6084 34.6351 12.4445 34.2226 12.4445ZM24.1115 15.5556C23.8038 15.5556 23.503 15.4644 23.2472 15.2934C22.9914 15.1225 22.792 14.8796 22.6743 14.5953C22.5566 14.3111 22.5258 13.9983 22.5858 13.6966C22.6458 13.3948 22.794 13.1177 23.0115 12.9001C23.2291 12.6826 23.5062 12.5344 23.808 12.4744C24.1097 12.4144 24.4225 12.4452 24.7067 12.5629C24.991 12.6806 25.2339 12.88 25.4049 13.1358C25.5758 13.3916 25.667 13.6924 25.667 14.0001C25.667 14.4126 25.5031 14.8083 25.2114 15.1C24.9197 15.3917 24.524 15.5556 24.1115 15.5556Z" fill="black"/>
<path d="M16.3333 12.4445H1.55556C1.143 12.4445 0.747335 12.6083 0.455612 12.9001C0.163888 13.1918 0 13.5875 0 14C0 14.4126 0.163888 14.8082 0.455612 15.1C0.747335 15.3917 1.143 15.5556 1.55556 15.5556H16.3333C16.7459 15.5556 17.1416 15.3917 17.4333 15.1C17.725 14.8082 17.8889 14.4126 17.8889 14C17.8889 13.5875 17.725 13.1918 17.4333 12.9001C17.1416 12.6083 16.7459 12.4445 16.3333 12.4445Z" fill="black"/>
<path d="M13.2222 18.6666C12.2581 18.6677 11.318 18.9674 10.5311 19.5245C9.74418 20.0816 9.14915 20.8687 8.82778 21.7777H1.55556C1.143 21.7777 0.747335 21.9416 0.455612 22.2334C0.163888 22.5251 0 22.9207 0 23.3333C0 23.7459 0.163888 24.1415 0.455612 24.4332C0.747335 24.725 1.143 24.8889 1.55556 24.8889H8.82778C9.11304 25.6957 9.61466 26.4085 10.2778 26.9495C10.9409 27.4904 11.74 27.8386 12.5877 27.9559C13.4354 28.0732 14.2991 27.9552 15.0842 27.6147C15.8693 27.2742 16.5457 26.7244 17.0394 26.0254C17.5331 25.3264 17.8251 24.5051 17.8834 23.6513C17.9417 22.7975 17.7641 21.9441 17.3701 21.1845C16.976 20.4248 16.3807 19.7881 15.6491 19.3441C14.9176 18.9 14.078 18.6657 13.2222 18.6666ZM13.2222 24.8889C12.9146 24.8889 12.6138 24.7976 12.358 24.6267C12.1022 24.4558 11.9028 24.2128 11.7851 23.9286C11.6673 23.6443 11.6365 23.3316 11.6966 23.0298C11.7566 22.7281 11.9047 22.4509 12.1223 22.2334C12.3398 22.0158 12.617 21.8677 12.9187 21.8076C13.2205 21.7476 13.5333 21.7784 13.8175 21.8961C14.1017 22.0139 14.3447 22.2133 14.5156 22.4691C14.6865 22.7249 14.7778 23.0256 14.7778 23.3333C14.7778 23.7459 14.6139 24.1415 14.3222 24.4332C14.0304 24.725 13.6348 24.8889 13.2222 24.8889Z" fill="black"/>
</svg>
