<svg width="244" height="46" viewBox="0 0 244 46" fill="none" xmlns="http://www.w3.org/2000/svg">
<path d="M16.0908 15.3594L13.373 31H10.2256L12.9326 15.3594H16.0908ZM25.2861 15.3594L17.874 23.1475L13.6846 27.0146L13.6631 23.7275L16.5312 20.4834L21.2148 15.3594H25.2861ZM18.9805 31L15.7148 23.6523L18.25 21.751L22.5469 31H18.9805ZM28.7988 31.2148C28.0039 31.2005 27.2878 31.0501 26.6504 30.7637C26.013 30.4701 25.4795 30.069 25.0498 29.5605C24.6273 29.0521 24.3158 28.4613 24.1152 27.7881C23.9147 27.1149 23.8431 26.3916 23.9004 25.6182L23.9434 25.1777C24.0293 24.3685 24.2262 23.5986 24.5342 22.8682C24.8421 22.1377 25.2539 21.4932 25.7695 20.9346C26.2852 20.3688 26.8939 19.9284 27.5957 19.6133C28.3047 19.291 29.0924 19.1406 29.959 19.1621C30.7682 19.1764 31.4593 19.3411 32.0322 19.6562C32.6051 19.9714 33.0671 20.3939 33.418 20.9238C33.7689 21.4538 34.0088 22.0589 34.1377 22.7393C34.2666 23.4124 34.2917 24.1178 34.2129 24.8555L34.041 26.1445H25.0605L25.3936 24.082L31.3232 24.0928L31.377 23.8242C31.4342 23.4303 31.4163 23.0651 31.3232 22.7285C31.2301 22.3848 31.0547 22.109 30.7969 21.9014C30.5391 21.6937 30.1953 21.5827 29.7656 21.5684C29.2715 21.554 28.8561 21.6579 28.5195 21.8799C28.1829 22.1019 27.9072 22.3955 27.6924 22.7607C27.4775 23.126 27.3128 23.5234 27.1982 23.9531C27.0837 24.3757 27.0013 24.7839 26.9512 25.1777L26.9082 25.6074C26.8724 25.987 26.8831 26.3665 26.9404 26.7461C26.9977 27.1185 27.1087 27.4551 27.2734 27.7559C27.4453 28.0566 27.6781 28.3001 27.9717 28.4863C28.2725 28.6725 28.6484 28.7728 29.0996 28.7871C29.6725 28.8014 30.1989 28.6904 30.6787 28.4541C31.1657 28.2106 31.6025 27.8883 31.9893 27.4873L33.3428 29.1201C33.0205 29.6071 32.6087 30.0081 32.1074 30.3232C31.6133 30.6312 31.0798 30.8568 30.5068 31C29.9339 31.1504 29.3646 31.222 28.7988 31.2148ZM39.3906 22.0303L37.833 31H34.8037L36.8232 19.377H39.6592L39.3906 22.0303ZM38.499 24.7803L37.7471 24.8018C37.8258 24.1071 37.9834 23.4196 38.2197 22.7393C38.4561 22.0589 38.7783 21.4466 39.1865 20.9023C39.6019 20.3509 40.1068 19.9176 40.7012 19.6025C41.3027 19.2874 42.001 19.137 42.7959 19.1514C43.4404 19.1729 43.9704 19.3089 44.3857 19.5596C44.8083 19.8031 45.1305 20.1325 45.3525 20.5479C45.5817 20.9632 45.7285 21.4323 45.793 21.9551C45.8646 22.4779 45.8717 23.0221 45.8145 23.5879L44.5684 31H41.5283L42.7852 23.5557C42.8281 23.1761 42.8174 22.8395 42.7529 22.5459C42.6885 22.2523 42.5452 22.0195 42.3232 21.8477C42.1084 21.6758 41.7933 21.5863 41.3779 21.5791C40.9196 21.5648 40.5221 21.6507 40.1855 21.8369C39.8561 22.0231 39.5768 22.2738 39.3477 22.5889C39.1185 22.904 38.9359 23.2513 38.7998 23.6309C38.6637 24.0104 38.5635 24.3936 38.499 24.7803ZM54.4082 19.377L54.0215 21.5684H47.4365L47.8232 19.377H54.4082ZM49.9502 16.5088H52.9688L51.0781 27.5195C51.0495 27.7702 51.0495 27.985 51.0781 28.1641C51.1139 28.3359 51.1963 28.4684 51.3252 28.5615C51.4541 28.6546 51.6546 28.7083 51.9268 28.7227C52.0771 28.7298 52.2275 28.7262 52.3779 28.7119C52.5283 28.6904 52.6823 28.6689 52.8398 28.6475L52.625 30.957C52.3385 31.043 52.0485 31.1038 51.7549 31.1396C51.4684 31.1826 51.1748 31.2041 50.874 31.2041C50.1865 31.1898 49.6208 31.0394 49.1768 30.7529C48.7399 30.4665 48.4248 30.0726 48.2314 29.5713C48.0452 29.0628 47.9844 28.4756 48.0488 27.8096L49.9502 16.5088ZM61.2402 28.0566L62.7441 19.377H65.7734L63.7539 31H60.918L61.2402 28.0566ZM61.9277 25.8223L62.7979 25.8008C62.7191 26.4811 62.5687 27.1471 62.3467 27.7988C62.1247 28.4505 61.8203 29.0378 61.4336 29.5605C61.0469 30.0833 60.5671 30.4951 59.9941 30.7959C59.4212 31.0967 58.7445 31.2399 57.9639 31.2256C57.3265 31.2113 56.7894 31.0895 56.3525 30.8604C55.9157 30.624 55.5684 30.3089 55.3105 29.915C55.0527 29.514 54.8773 29.0557 54.7842 28.54C54.6982 28.0244 54.6839 27.473 54.7412 26.8857L55.998 19.377H59.0166L57.749 26.9287C57.7275 27.1722 57.7275 27.4049 57.749 27.627C57.7705 27.8418 57.8278 28.0352 57.9209 28.207C58.014 28.3789 58.1465 28.5186 58.3184 28.626C58.4902 28.7262 58.7194 28.7799 59.0059 28.7871C59.6146 28.8086 60.1195 28.6868 60.5205 28.4219C60.9215 28.1497 61.2331 27.7845 61.4551 27.3262C61.6842 26.8678 61.8418 26.3665 61.9277 25.8223ZM71.123 28.8086C71.5026 28.8158 71.8392 28.7441 72.1328 28.5938C72.4336 28.4434 72.6807 28.2321 72.874 27.96C73.0674 27.6878 73.1963 27.3727 73.2607 27.0146L76.1074 27.0039C76.043 27.8704 75.7637 28.6224 75.2695 29.2598C74.7826 29.8971 74.1631 30.3877 73.4111 30.7314C72.6663 31.0752 71.875 31.2363 71.0371 31.2148C70.1992 31.2005 69.4795 31.0322 68.8779 30.71C68.2835 30.3877 67.8037 29.958 67.4385 29.4209C67.0732 28.8766 66.8154 28.2572 66.665 27.5625C66.5218 26.8678 66.486 26.1374 66.5576 25.3711L66.5898 25.0488C66.6758 24.2467 66.8691 23.4876 67.1699 22.7715C67.4707 22.0482 67.8717 21.4144 68.373 20.8701C68.8815 20.3187 69.4795 19.8926 70.167 19.5918C70.8545 19.2839 71.6315 19.1406 72.498 19.1621C73.3932 19.1764 74.1595 19.3805 74.7969 19.7744C75.4342 20.1611 75.9176 20.6911 76.2471 21.3643C76.5837 22.0374 76.7448 22.8109 76.7305 23.6846L73.8945 23.6738C73.9017 23.3229 73.8551 22.9899 73.7549 22.6748C73.6546 22.3525 73.4827 22.0947 73.2393 21.9014C73.0029 21.7008 72.6807 21.5898 72.2725 21.5684C71.7926 21.554 71.3916 21.6543 71.0693 21.8691C70.7471 22.0768 70.4857 22.3597 70.2852 22.7178C70.0846 23.0687 69.9307 23.4518 69.8232 23.8672C69.7158 24.2754 69.6406 24.6729 69.5977 25.0596L69.5762 25.3711C69.5404 25.6934 69.5189 26.0514 69.5117 26.4453C69.5046 26.832 69.5439 27.2044 69.6299 27.5625C69.7158 27.9134 69.8734 28.207 70.1025 28.4434C70.3389 28.6725 70.679 28.7943 71.123 28.8086ZM82.9717 14.5L80.1035 31H77.085L79.9531 14.5H82.9717ZM80.7803 24.7803L79.9961 24.791C80.0749 24.1322 80.2288 23.4661 80.458 22.793C80.6943 22.1198 81.013 21.5075 81.4141 20.9561C81.8151 20.3975 82.3057 19.9535 82.8857 19.624C83.473 19.2874 84.1533 19.1299 84.9268 19.1514C85.5785 19.1657 86.1191 19.2982 86.5488 19.5488C86.9857 19.7923 87.3258 20.1253 87.5693 20.5479C87.8128 20.9632 87.974 21.4395 88.0527 21.9766C88.1315 22.5065 88.1387 23.0651 88.0742 23.6523L86.8496 31H83.8096L85.0557 23.6201C85.0986 23.2406 85.0879 22.9004 85.0234 22.5996C84.9661 22.2917 84.8265 22.0482 84.6045 21.8691C84.3896 21.6829 84.071 21.5863 83.6484 21.5791C83.1829 21.5648 82.7819 21.6471 82.4453 21.8262C82.1159 22.0052 81.8366 22.2523 81.6074 22.5674C81.3783 22.8753 81.1992 23.2227 81.0703 23.6094C80.9414 23.9889 80.8447 24.3792 80.7803 24.7803ZM92.7041 29.5283L97.4092 19.377H100.739L93.9287 32.7617C93.7282 33.1842 93.499 33.5745 93.2412 33.9326C92.9906 34.2979 92.7041 34.613 92.3818 34.8779C92.0667 35.1501 91.7051 35.3577 91.2969 35.501C90.8958 35.6514 90.4447 35.7266 89.9434 35.7266C89.6927 35.7266 89.4492 35.7051 89.2129 35.6621C88.9766 35.6191 88.7402 35.569 88.5039 35.5117L88.7188 33.2236C88.7975 33.2308 88.8763 33.238 88.9551 33.2451C89.0267 33.2523 89.0983 33.2559 89.1699 33.2559C89.528 33.263 89.8431 33.2201 90.1152 33.127C90.3945 33.041 90.638 32.8978 90.8457 32.6973C91.0534 32.5039 91.2396 32.2497 91.4043 31.9346L92.7041 29.5283ZM93.1875 19.377L94.1973 27.96L94.0576 31.0859L92.0381 31.3223L90.0508 19.377H93.1875ZM111.31 15.3594L108.592 31H105.444L108.151 15.3594H111.31ZM116.197 22.041L115.757 24.5547H108.839L109.279 22.041H116.197ZM118.077 15.3594L117.647 17.8838H109.999L110.439 15.3594H118.077ZM121.257 22.0732L119.71 31H116.691L118.711 19.377H121.547L121.257 22.0732ZM125.049 19.2803L124.673 22.1699C124.501 22.1413 124.326 22.1162 124.146 22.0947C123.975 22.0732 123.799 22.0589 123.62 22.0518C123.205 22.0446 122.829 22.0983 122.492 22.2129C122.156 22.3275 121.862 22.4958 121.611 22.7178C121.368 22.9326 121.16 23.1976 120.988 23.5127C120.824 23.8278 120.698 24.1823 120.612 24.5762L120.021 24.3828C120.093 23.8314 120.211 23.2513 120.376 22.6426C120.548 22.0267 120.784 21.4538 121.085 20.9238C121.393 20.3867 121.783 19.9535 122.256 19.624C122.736 19.2874 123.319 19.1227 124.007 19.1299C124.186 19.1299 124.358 19.1442 124.522 19.1729C124.694 19.2015 124.87 19.2373 125.049 19.2803ZM129.711 19.377L127.702 31H124.673L126.692 19.377H129.711ZM127.025 16.4014C127.011 15.9144 127.169 15.5241 127.498 15.2305C127.835 14.9368 128.239 14.7865 128.712 14.7793C129.163 14.7721 129.557 14.9082 129.894 15.1875C130.23 15.4596 130.398 15.8285 130.398 16.2939C130.413 16.7809 130.252 17.1712 129.915 17.4648C129.578 17.7585 129.177 17.9089 128.712 17.916C128.261 17.9232 127.867 17.7907 127.53 17.5186C127.201 17.2464 127.033 16.874 127.025 16.4014ZM135.619 31.2148C134.824 31.2005 134.108 31.0501 133.471 30.7637C132.833 30.4701 132.3 30.069 131.87 29.5605C131.448 29.0521 131.136 28.4613 130.936 27.7881C130.735 27.1149 130.663 26.3916 130.721 25.6182L130.764 25.1777C130.85 24.3685 131.047 23.5986 131.354 22.8682C131.662 22.1377 132.074 21.4932 132.59 20.9346C133.105 20.3688 133.714 19.9284 134.416 19.6133C135.125 19.291 135.913 19.1406 136.779 19.1621C137.589 19.1764 138.28 19.3411 138.853 19.6562C139.425 19.9714 139.887 20.3939 140.238 20.9238C140.589 21.4538 140.829 22.0589 140.958 22.7393C141.087 23.4124 141.112 24.1178 141.033 24.8555L140.861 26.1445H131.881L132.214 24.082L138.144 24.0928L138.197 23.8242C138.255 23.4303 138.237 23.0651 138.144 22.7285C138.05 22.3848 137.875 22.109 137.617 21.9014C137.359 21.6937 137.016 21.5827 136.586 21.5684C136.092 21.554 135.676 21.6579 135.34 21.8799C135.003 22.1019 134.728 22.3955 134.513 22.7607C134.298 23.126 134.133 23.5234 134.019 23.9531C133.904 24.3757 133.822 24.7839 133.771 25.1777L133.729 25.6074C133.693 25.987 133.703 26.3665 133.761 26.7461C133.818 27.1185 133.929 27.4551 134.094 27.7559C134.266 28.0566 134.498 28.3001 134.792 28.4863C135.093 28.6725 135.469 28.7728 135.92 28.7871C136.493 28.8014 137.019 28.6904 137.499 28.4541C137.986 28.2106 138.423 27.8883 138.81 27.4873L140.163 29.1201C139.841 29.6071 139.429 30.0081 138.928 30.3232C138.434 30.6312 137.9 30.8568 137.327 31C136.754 31.1504 136.185 31.222 135.619 31.2148ZM148.832 28.293L151.217 14.5H154.257L151.399 31H148.682L148.832 28.293ZM142.215 25.4141L142.236 25.1777C142.329 24.4688 142.494 23.7526 142.73 23.0293C142.974 22.306 143.303 21.6471 143.719 21.0527C144.141 20.4583 144.66 19.9857 145.276 19.6348C145.892 19.2839 146.623 19.1227 147.468 19.1514C148.191 19.18 148.789 19.3841 149.262 19.7637C149.734 20.1361 150.1 20.6195 150.357 21.2139C150.622 21.8011 150.801 22.4277 150.895 23.0938C150.995 23.7526 151.034 24.3792 151.013 24.9736L150.959 25.4893C150.844 26.1266 150.651 26.7855 150.379 27.4658C150.114 28.139 149.767 28.7656 149.337 29.3457C148.914 29.9186 148.41 30.3805 147.822 30.7314C147.242 31.0824 146.58 31.2471 145.835 31.2256C145.054 31.2041 144.413 31.0143 143.912 30.6562C143.418 30.291 143.035 29.8219 142.763 29.249C142.491 28.6761 142.315 28.0531 142.236 27.3799C142.158 26.7067 142.15 26.0514 142.215 25.4141ZM145.276 25.167L145.255 25.3926C145.226 25.7005 145.208 26.0479 145.201 26.4346C145.201 26.8141 145.241 27.1829 145.319 27.541C145.405 27.8919 145.559 28.1855 145.781 28.4219C146.01 28.651 146.34 28.7764 146.77 28.7979C147.314 28.8193 147.783 28.694 148.177 28.4219C148.571 28.1426 148.886 27.7845 149.122 27.3477C149.366 26.9108 149.527 26.4525 149.605 25.9727L149.81 24.5439C149.845 24.2145 149.845 23.8815 149.81 23.5449C149.774 23.2083 149.691 22.8932 149.562 22.5996C149.441 22.306 149.255 22.0661 149.004 21.8799C148.76 21.6937 148.442 21.597 148.048 21.5898C147.568 21.5684 147.16 21.6722 146.823 21.9014C146.494 22.1234 146.225 22.417 146.018 22.7822C145.81 23.1403 145.645 23.5306 145.523 23.9531C145.409 24.3757 145.326 24.7803 145.276 25.167ZM164.215 28.8086C164.594 28.8158 164.931 28.7441 165.225 28.5938C165.525 28.4434 165.772 28.2321 165.966 27.96C166.159 27.6878 166.288 27.3727 166.353 27.0146L169.199 27.0039C169.135 27.8704 168.855 28.6224 168.361 29.2598C167.874 29.8971 167.255 30.3877 166.503 30.7314C165.758 31.0752 164.967 31.2363 164.129 31.2148C163.291 31.2005 162.571 31.0322 161.97 30.71C161.375 30.3877 160.896 29.958 160.53 29.4209C160.165 28.8766 159.907 28.2572 159.757 27.5625C159.614 26.8678 159.578 26.1374 159.649 25.3711L159.682 25.0488C159.768 24.2467 159.961 23.4876 160.262 22.7715C160.562 22.0482 160.964 21.4144 161.465 20.8701C161.973 20.3187 162.571 19.8926 163.259 19.5918C163.946 19.2839 164.723 19.1406 165.59 19.1621C166.485 19.1764 167.251 19.3805 167.889 19.7744C168.526 20.1611 169.009 20.6911 169.339 21.3643C169.675 22.0374 169.837 22.8109 169.822 23.6846L166.986 23.6738C166.993 23.3229 166.947 22.9899 166.847 22.6748C166.746 22.3525 166.575 22.0947 166.331 21.9014C166.095 21.7008 165.772 21.5898 165.364 21.5684C164.884 21.554 164.483 21.6543 164.161 21.8691C163.839 22.0768 163.577 22.3597 163.377 22.7178C163.176 23.0687 163.022 23.4518 162.915 23.8672C162.808 24.2754 162.732 24.6729 162.689 25.0596L162.668 25.3711C162.632 25.6934 162.611 26.0514 162.604 26.4453C162.596 26.832 162.636 27.2044 162.722 27.5625C162.808 27.9134 162.965 28.207 163.194 28.4434C163.431 28.6725 163.771 28.7943 164.215 28.8086ZM176.063 14.5L173.195 31H170.177L173.045 14.5H176.063ZM173.872 24.7803L173.088 24.791C173.167 24.1322 173.321 23.4661 173.55 22.793C173.786 22.1198 174.105 21.5075 174.506 20.9561C174.907 20.3975 175.397 19.9535 175.978 19.624C176.565 19.2874 177.245 19.1299 178.019 19.1514C178.67 19.1657 179.211 19.2982 179.641 19.5488C180.077 19.7923 180.418 20.1253 180.661 20.5479C180.905 20.9632 181.066 21.4395 181.145 21.9766C181.223 22.5065 181.23 23.0651 181.166 23.6523L179.941 31H176.901L178.147 23.6201C178.19 23.2406 178.18 22.9004 178.115 22.5996C178.058 22.2917 177.918 22.0482 177.696 21.8691C177.481 21.6829 177.163 21.5863 176.74 21.5791C176.275 21.5648 175.874 21.6471 175.537 21.8262C175.208 22.0052 174.928 22.2523 174.699 22.5674C174.47 22.8753 174.291 23.2227 174.162 23.6094C174.033 23.9889 173.937 24.3792 173.872 24.7803ZM187.396 19.377L185.388 31H182.358L184.378 19.377H187.396ZM184.711 16.4014C184.697 15.9144 184.854 15.5241 185.184 15.2305C185.52 14.9368 185.925 14.7865 186.397 14.7793C186.849 14.7721 187.243 14.9082 187.579 15.1875C187.916 15.4596 188.084 15.8285 188.084 16.2939C188.098 16.7809 187.937 17.1712 187.601 17.4648C187.264 17.7585 186.863 17.9089 186.397 17.916C185.946 17.9232 185.552 17.7907 185.216 17.5186C184.886 17.2464 184.718 16.874 184.711 16.4014ZM192.939 28.8086C193.319 28.8158 193.656 28.7441 193.949 28.5938C194.25 28.4434 194.497 28.2321 194.69 27.96C194.884 27.6878 195.013 27.3727 195.077 27.0146L197.924 27.0039C197.859 27.8704 197.58 28.6224 197.086 29.2598C196.599 29.8971 195.979 30.3877 195.228 30.7314C194.483 31.0752 193.691 31.2363 192.854 31.2148C192.016 31.2005 191.296 31.0322 190.694 30.71C190.1 30.3877 189.62 29.958 189.255 29.4209C188.89 28.8766 188.632 28.2572 188.481 27.5625C188.338 26.8678 188.302 26.1374 188.374 25.3711L188.406 25.0488C188.492 24.2467 188.686 23.4876 188.986 22.7715C189.287 22.0482 189.688 21.4144 190.189 20.8701C190.698 20.3187 191.296 19.8926 191.983 19.5918C192.671 19.2839 193.448 19.1406 194.314 19.1621C195.21 19.1764 195.976 19.3805 196.613 19.7744C197.251 20.1611 197.734 20.6911 198.063 21.3643C198.4 22.0374 198.561 22.8109 198.547 23.6846L195.711 23.6738C195.718 23.3229 195.672 22.9899 195.571 22.6748C195.471 22.3525 195.299 22.0947 195.056 21.9014C194.819 21.7008 194.497 21.5898 194.089 21.5684C193.609 21.554 193.208 21.6543 192.886 21.8691C192.563 22.0768 192.302 22.3597 192.102 22.7178C191.901 23.0687 191.747 23.4518 191.64 23.8672C191.532 24.2754 191.457 24.6729 191.414 25.0596L191.393 25.3711C191.357 25.6934 191.335 26.0514 191.328 26.4453C191.321 26.832 191.36 27.2044 191.446 27.5625C191.532 27.9134 191.69 28.207 191.919 28.4434C192.155 28.6725 192.495 28.7943 192.939 28.8086ZM204.863 14.4893L201.995 31H198.977L201.845 14.4893H204.863ZM211.233 19.377L205.336 25.1455L202.178 27.917L201.426 25.5L203.907 22.8467L207.388 19.377H211.233ZM206.056 31L203.596 25.5L205.884 23.7383L209.386 31H206.056ZM215.627 31.2148C214.832 31.2005 214.116 31.0501 213.479 30.7637C212.841 30.4701 212.308 30.069 211.878 29.5605C211.455 29.0521 211.144 28.4613 210.943 27.7881C210.743 27.1149 210.671 26.3916 210.729 25.6182L210.771 25.1777C210.857 24.3685 211.054 23.5986 211.362 22.8682C211.67 22.1377 212.082 21.4932 212.598 20.9346C213.113 20.3688 213.722 19.9284 214.424 19.6133C215.133 19.291 215.921 19.1406 216.787 19.1621C217.596 19.1764 218.287 19.3411 218.86 19.6562C219.433 19.9714 219.895 20.3939 220.246 20.9238C220.597 21.4538 220.837 22.0589 220.966 22.7393C221.095 23.4124 221.12 24.1178 221.041 24.8555L220.869 26.1445H211.889L212.222 24.082L218.151 24.0928L218.205 23.8242C218.262 23.4303 218.244 23.0651 218.151 22.7285C218.058 22.3848 217.883 22.109 217.625 21.9014C217.367 21.6937 217.023 21.5827 216.594 21.5684C216.1 21.554 215.684 21.6579 215.348 21.8799C215.011 22.1019 214.735 22.3955 214.521 22.7607C214.306 23.126 214.141 23.5234 214.026 23.9531C213.912 24.3757 213.829 24.7839 213.779 25.1777L213.736 25.6074C213.701 25.987 213.711 26.3665 213.769 26.7461C213.826 27.1185 213.937 27.4551 214.102 27.7559C214.273 28.0566 214.506 28.3001 214.8 28.4863C215.101 28.6725 215.477 28.7728 215.928 28.7871C216.501 28.8014 217.027 28.6904 217.507 28.4541C217.994 28.2106 218.431 27.8883 218.817 27.4873L220.171 29.1201C219.849 29.6071 219.437 30.0081 218.936 30.3232C218.441 30.6312 217.908 30.8568 217.335 31C216.762 31.1504 216.193 31.222 215.627 31.2148ZM226.219 22.0303L224.661 31H221.632L223.651 19.377H226.487L226.219 22.0303ZM225.327 24.7803L224.575 24.8018C224.654 24.1071 224.812 23.4196 225.048 22.7393C225.284 22.0589 225.606 21.4466 226.015 20.9023C226.43 20.3509 226.935 19.9176 227.529 19.6025C228.131 19.2874 228.829 19.137 229.624 19.1514C230.269 19.1729 230.799 19.3089 231.214 19.5596C231.636 19.8031 231.959 20.1325 232.181 20.5479C232.41 20.9632 232.557 21.4323 232.621 21.9551C232.693 22.4779 232.7 23.0221 232.643 23.5879L231.396 31H228.356L229.613 23.5557C229.656 23.1761 229.646 22.8395 229.581 22.5459C229.517 22.2523 229.373 22.0195 229.151 21.8477C228.937 21.6758 228.621 21.5863 228.206 21.5791C227.748 21.5648 227.35 21.6507 227.014 21.8369C226.684 22.0231 226.405 22.2738 226.176 22.5889C225.947 22.904 225.764 23.2513 225.628 23.6309C225.492 24.0104 225.392 24.3936 225.327 24.7803Z" fill="black"/>
</svg>
