<svg width="19" height="19" viewBox="0 0 19 19" fill="none" xmlns="http://www.w3.org/2000/svg">
<path d="M5.01465 10.3174L8.80024 14.1018L16.7592 6.14222L12.9752 2.35767L5.01465 10.3174ZM13.8728 5.24441C14.1357 5.50791 14.1357 5.93468 13.8728 6.19775L9.26376 10.8056C9.13243 10.9377 8.95997 11.0031 8.78813 11.0031C8.61463 11.0031 8.44258 10.9377 8.31125 10.8056C8.04797 10.5421 8.04797 10.1155 8.31125 9.85244L12.9197 5.24441C13.1826 4.98113 13.6095 4.98113 13.8728 5.24441Z" fill="#5E5555"/>
<path d="M3.28223 15.7801L7.48791 14.6975L4.40782 11.6174L3.28223 15.7801Z" fill="#5E5555"/>
<path d="M18.2946 2.61681L16.5005 0.822036C15.9685 0.290454 15.0406 0.29108 14.5107 0.822036L13.9277 1.40519L17.7129 5.18932L18.2946 4.60721C18.8423 4.05809 18.8423 3.16509 18.2946 2.61681Z" fill="#5E5555"/>
<path d="M16.6171 18.6981H0.723043C0.340328 18.6981 0.0302734 18.3879 0.0302734 18.0052V1.1509C0.0302734 0.768185 0.34012 0.45813 0.723043 0.45813H11.395C11.7781 0.45813 12.0875 0.768185 12.0875 1.1509C12.0875 1.5334 11.7781 1.84367 11.395 1.84367H1.41581V17.3122H16.6171C17.1583 17.3122 17.5986 16.872 17.5986 16.3306V7.6393C17.5986 7.25658 17.9084 6.94653 18.2912 6.94653C18.6737 6.94653 18.9839 7.25658 18.9839 7.6393V16.3306C18.9841 17.636 17.9222 18.6981 16.6171 18.6981Z" fill="#5E5555"/>
</svg>
