<svg width="21" height="21" viewBox="0 0 21 21" fill="none" xmlns="http://www.w3.org/2000/svg">
<path d="M10.2498 1.70801C8.4493 1.70792 6.72149 2.41847 5.44194 3.68523C4.16239 4.95198 3.43451 6.67256 3.4165 8.47301C3.4165 13.1538 9.43838 18.3643 9.69463 18.5863C9.84935 18.7187 10.0462 18.7914 10.2498 18.7914C10.4534 18.7914 10.6503 18.7187 10.805 18.5863C11.104 18.3643 17.0832 13.1538 17.0832 8.47301C17.0652 6.67256 16.3373 4.95198 15.0577 3.68523C13.7782 2.41847 12.0504 1.70792 10.2498 1.70801ZM10.2498 16.784C8.82338 15.4259 5.12484 11.659 5.12484 8.47301C5.12484 7.11377 5.66479 5.81021 6.62592 4.84909C7.58704 3.88796 8.8906 3.34801 10.2498 3.34801C11.6091 3.34801 12.9126 3.88796 13.8738 4.84909C14.8349 5.81021 15.3748 7.11377 15.3748 8.47301C15.3748 11.6334 11.6763 15.4259 10.2498 16.784Z" fill="#242424"/>
<path d="M10.2498 5.125C9.65856 5.125 9.08055 5.30034 8.58892 5.62884C8.09728 5.95734 7.7141 6.42424 7.48782 6.97052C7.26155 7.51679 7.20235 8.1179 7.3177 8.69782C7.43305 9.27774 7.71778 9.81044 8.13588 10.2285C8.55399 10.6466 9.08668 10.9314 9.6666 11.0467C10.2465 11.1621 10.8476 11.1029 11.3939 10.8766C11.9402 10.6503 12.4071 10.2671 12.7356 9.77551C13.0641 9.28387 13.2394 8.70587 13.2394 8.11458C13.2394 7.3217 12.9244 6.56128 12.3638 6.00063C11.8031 5.43997 11.0427 5.125 10.2498 5.125ZM10.2498 9.39583C9.99643 9.39583 9.74872 9.32069 9.53801 9.1799C9.32731 9.03912 9.16309 8.83901 9.06612 8.6049C8.96914 8.37078 8.94377 8.11316 8.99321 7.86462C9.04264 7.61609 9.16467 7.38779 9.34386 7.2086C9.52304 7.02942 9.75134 6.90739 9.99988 6.85795C10.2484 6.80851 10.506 6.83389 10.7402 6.93086C10.9743 7.02784 11.1744 7.19206 11.3152 7.40276C11.4559 7.61346 11.5311 7.86118 11.5311 8.11458C11.5311 8.45439 11.3961 8.78028 11.1558 9.02056C10.9155 9.26085 10.5896 9.39583 10.2498 9.39583Z" fill="#242424"/>
</svg>
