<svg width="34" height="35" viewBox="0 0 34 35" fill="none" xmlns="http://www.w3.org/2000/svg">
<path d="M13.216 0C5.91767 0 0 5.91767 0 13.216C0 20.5144 5.91767 26.4321 13.216 26.4321C16.0225 26.4321 18.6253 25.5567 20.7647 24.0656L20.7663 24.064L30.5679 33.8657C30.7498 34.0476 31.039 34.0522 31.2256 33.8657L33.8672 31.224C34.0491 31.0421 34.0398 30.7405 33.8657 30.5664L24.0655 20.7663C25.5566 18.6253 26.432 16.0225 26.432 13.216C26.432 5.91767 20.5143 0 13.216 0ZM13.216 23.3224C7.63413 23.3224 3.10961 18.7979 3.10961 13.216C3.10961 7.63419 7.63419 3.10966 13.216 3.10966C18.7978 3.10966 23.3223 7.63419 23.3223 13.216C23.3223 18.7979 18.7978 23.3224 13.216 23.3224Z" fill="black"/>
</svg>
