<svg width="44" height="44" viewBox="0 0 44 44" fill="none" xmlns="http://www.w3.org/2000/svg">
<path d="M37.2379 8.22573C38.9535 6.89078 40.2844 4.88835 40.8563 2.66748C39.3278 3.78398 37.425 4.6699 35.7094 5.1068C34.1809 3.10437 32.091 2 29.8035 2C25.2285 2 21.6101 6.44175 21.6101 12C21.6101 12.8859 21.6101 13.5534 21.7972 14.2209C14.9452 13.7718 8.84169 9.77913 4.84897 3.77184C4.08994 5.32524 3.70522 7.10922 3.70522 8.88107C3.70522 12.4369 5.23369 15.5558 7.32363 17.3277C5.99272 17.3277 4.66181 16.8786 3.51807 15.9927V16.2112C3.51807 21.1019 6.37744 25.1068 10.183 26.2112C9.42397 26.4296 8.85209 26.6602 8.09306 26.6602C7.52118 26.6602 7.13647 26.6602 6.5646 26.4417C7.52119 30.4466 10.5677 33.3349 14.1861 33.5534C11.3267 36.2233 7.9059 37.7767 3.90278 37.7767C3.33091 37.7767 2.57187 37.7767 2 37.5583C5.6184 40.4466 9.99584 42 14.5708 42C29.6163 42 37.9969 26.6602 37.9969 13.3228C37.9969 12.8738 37.9969 12.4369 37.9969 11.9879C39.5253 10.6529 41.0434 8.88107 42 6.64806C40.4819 7.55825 38.9535 8.00728 37.2379 8.22573Z" stroke="#FDFDFD" stroke-width="3" stroke-miterlimit="10" stroke-linejoin="round"/>
</svg>
