<svg width="49" height="48" viewBox="0 0 49 48" fill="none" xmlns="http://www.w3.org/2000/svg">
<path d="M13.8049 16.8864C13.8887 17.4252 13.9731 18.0068 14.053 18.5799C14.105 18.9734 14.3779 19.2099 14.7373 19.1755C15.0797 19.1498 15.2992 18.8857 15.2944 18.5002C15.2763 17.0438 14.7941 15.8159 13.6385 14.8706C12.9937 14.3517 12.6636 13.6489 12.6063 12.827C12.5907 12.6087 12.588 12.3945 12.5511 12.1765C12.4911 11.8302 12.2056 11.611 11.889 11.6449C11.5553 11.6876 11.3229 11.9475 11.3231 12.3031C11.3324 13.7425 11.7847 14.9751 12.9274 15.9162C13.2349 16.178 13.4747 16.5178 13.8049 16.8864ZM24.7865 11.1162C24.4215 10.7009 24.0988 10.2422 23.6873 9.88313C22.9596 9.24525 22.556 8.48339 22.5141 7.52424C22.5078 7.3658 22.5016 7.20736 22.4783 7.0577C22.4186 6.73284 22.1416 6.50922 21.8376 6.52585C21.5122 6.54275 21.2499 6.80734 21.2498 7.14152C21.2503 8.56388 21.6727 9.80106 22.8025 10.7381C23.2181 11.0843 23.5787 11.4911 23.7351 12.0032C23.8694 12.4728 23.9099 12.9693 23.9888 13.4567C24.0449 13.8373 24.2919 14.0656 24.6302 14.0528C24.977 14.0357 25.2223 13.7798 25.2134 13.4072C25.1953 12.6406 25.1215 11.8703 24.7865 11.1162ZM18.7682 14.3056C18.8479 14.8573 18.9408 15.4345 19.0251 16.0161C19.0772 16.4096 19.3371 16.642 19.7009 16.6161C20.0434 16.5904 20.2629 16.3263 20.2581 15.9408C20.2487 14.5014 19.775 13.2692 18.6282 12.3409C17.9702 11.7964 17.6272 11.0895 17.5652 10.2377C17.5497 10.0194 17.547 9.8052 17.51 9.58716C17.4459 9.25379 17.1607 9.05597 16.8526 9.08551C16.5445 9.11504 16.2992 9.37086 16.2947 9.69652C16.2949 11.0975 16.7129 12.3261 17.8087 13.2808C18.1337 13.5766 18.4123 13.9287 18.7682 14.3056Z" fill="#F9F9F9"/>
<path d="M40.0849 13.8648C40.351 14.5898 40.647 15.3101 40.8746 16.0442C42.6557 21.8186 42.1107 27.2621 38.445 32.2131C38.0911 32.6973 37.9968 33.037 38.3456 33.5253C38.5767 33.8481 38.727 34.2232 38.9029 34.5852C39.0963 34.9812 39.0058 35.2865 38.6274 35.514C38.5381 35.5708 38.4316 35.615 38.3379 35.6633C34.1491 37.8232 29.9602 39.9831 25.7714 42.143C24.9966 42.5425 24.8159 42.4847 24.412 41.7014C24.2013 41.2928 23.9821 40.8885 23.7799 40.4754C23.6918 40.2837 23.5839 40.2208 23.3612 40.2279C17.1739 40.4975 12.3265 37.9315 8.55692 33.15C7.76898 32.1445 7.14227 31.0127 6.47325 29.9242C6.18896 29.4565 6.30935 29.1465 6.80316 28.8919C17.3775 23.4395 27.9432 17.9914 38.5131 12.5305C38.8367 12.3637 39.1069 12.386 39.3962 12.5709C39.6415 13.0049 39.861 13.4306 40.0849 13.8648ZM38.7139 13.8604C28.378 19.1899 18.1187 24.4799 7.82537 29.7874C7.86488 29.8641 7.89561 29.9237 7.93073 29.9918C8.7232 31.3615 9.62169 32.6441 10.7155 33.783C14.2919 37.5001 18.6079 39.3701 23.8123 38.9498C24.1976 38.9236 24.4562 39.0489 24.6277 39.4024C24.8697 39.9135 25.1457 40.407 25.4003 40.9009C29.47 38.8024 33.4886 36.7303 37.5412 34.6407C37.2866 34.1469 37.0407 33.6701 36.7993 33.2018C36.549 32.7165 36.5732 32.5963 36.932 32.1634C37.1642 31.882 37.4007 31.6092 37.6026 31.311C41.5048 25.7316 41.3209 19.8988 38.7139 13.8604Z" fill="#E4002B" fill-opacity="0.5"/>
<path d="M13.8031 16.8863C13.473 16.5177 13.2287 16.1694 12.9172 15.9205C11.7829 14.9749 11.3221 13.7468 11.3128 12.3074C11.3127 11.9518 11.5451 11.6919 11.8702 11.6535C12.1868 11.6196 12.4723 11.8389 12.5323 12.1851C12.5693 12.4032 12.5719 12.6173 12.5875 12.8356C12.6448 13.6575 12.9749 14.3603 13.6197 14.8793C14.7838 15.8202 15.2661 17.048 15.2757 18.5088C15.2805 18.8944 15.061 19.1584 14.7185 19.1841C14.3547 19.2101 14.0948 18.9777 14.0342 18.5885C13.9798 18.0023 13.887 17.4251 13.8031 16.8863Z" fill="#E4002B" fill-opacity="0.5"/>
<path d="M24.7841 11.1162C25.119 11.8704 25.1929 12.6406 25.2154 13.4158C25.2287 13.7969 24.9748 14.0571 24.6322 14.0614C24.2853 14.0786 24.0468 13.8459 23.9907 13.4653C23.9118 12.9779 23.8713 12.4814 23.737 12.0118C23.5892 11.4953 23.2285 11.0885 22.8044 10.7467C21.6746 9.80964 21.2522 8.57246 21.2517 7.1501C21.2474 6.80741 21.5142 6.55133 21.8395 6.53443C22.1435 6.5178 22.4205 6.74142 22.4802 7.06628C22.5079 7.22445 22.5098 7.37438 22.516 7.53282C22.5579 8.49197 22.9615 9.25383 23.6892 9.89171C24.0963 10.2422 24.419 10.7009 24.7841 11.1162Z" fill="#E4002B" fill-opacity="0.5"/>
<path d="M18.7678 14.3052C18.4075 13.9198 18.1374 13.5633 17.8083 13.2804C16.7125 12.3257 16.2989 11.1056 16.2942 9.69613C16.2988 9.37047 16.5441 9.11465 16.8522 9.08512C17.1603 9.05559 17.4455 9.2534 17.5096 9.58677C17.5551 9.80042 17.5493 10.019 17.5648 10.2373C17.6268 11.0891 17.9742 11.8045 18.6277 12.3405C19.7661 13.2732 20.2483 14.501 20.2576 15.9404C20.2624 16.3259 20.0429 16.59 19.7005 16.6157C19.3367 16.6416 19.0853 16.4048 19.0247 16.0157C18.9448 15.4426 18.8519 14.8654 18.7678 14.3052Z" fill="#E4002B" fill-opacity="0.5"/>
<path d="M36.1209 30.6318C35.8716 30.5664 35.5932 30.5698 35.4502 30.4388C35.3028 30.2992 35.2908 30.0252 35.2494 29.7986C35.2357 29.7303 35.3118 29.6479 35.3624 29.5787C37.895 25.8371 38.3453 21.7358 37.4818 17.4066C37.4179 17.0946 37.3285 16.7959 37.2776 16.488C37.2176 16.1417 37.4324 15.8477 37.7573 15.788C38.0906 15.7239 38.397 15.9 38.4825 16.2331C39.6455 20.8714 39.3368 25.3308 36.8784 29.5299C36.6643 29.8882 36.4028 30.217 36.1209 30.6318Z" fill="#E4002B" fill-opacity="0.5"/>
</svg>
