<svg width="31" height="39" viewBox="0 0 31 39" fill="none" xmlns="http://www.w3.org/2000/svg">
<path d="M30.4197 11.8714L29.7747 11.6531L29.9302 9.77828C29.9532 9.52561 29.7952 9.28457 29.5522 9.2023L29.0194 9.02191L29.5605 7.42353C29.6586 7.13377 29.4979 6.80846 29.2081 6.71036L28.6753 6.52998L29.2165 4.9316C29.3146 4.64183 29.1632 4.31969 28.8641 4.21842C28.7799 4.18994 28.6895 4.18015 28.602 4.19223L23.7493 4.86224L10.0182 0.213462C9.72844 0.11536 9.40313 0.276109 9.30503 0.565874L8.76388 2.16425L8.23109 1.98387C7.98806 1.90159 7.71611 1.99706 7.58091 2.21175L6.55614 3.79226L5.91118 3.5739C5.62142 3.4758 5.29611 3.63655 5.19801 3.92631L4.11572 7.12307C4.01762 7.41284 4.17837 7.73815 4.46813 7.83625L6.11325 8.39321L4.39125 15.5721C4.39125 15.5721 4.39125 15.5721 4.38808 15.5815L3.32496 20.0141L0.425461 32.0558C0.36173 32.3363 0.513278 32.6273 0.793695 32.7222L16.7775 38.1337C17.0579 38.2286 17.3519 38.0989 17.4748 37.828L22.4868 26.5015L24.3351 22.3347L24.3383 22.3253L27.3315 15.5768L28.9766 16.1338C29.2664 16.2319 29.5917 16.0711 29.6898 15.7814L30.7721 12.5846C30.8734 12.2855 30.7188 11.9727 30.4197 11.8714ZM27.8504 5.42762L27.6004 6.16605L26.1235 5.66604L27.8504 5.42762ZM10.1902 1.45943L28.3052 7.5924L27.9444 8.65799L9.82947 2.52502L10.1902 1.45943ZM8.28161 3.1887L28.7614 10.1223L28.6717 11.2797L7.65912 4.16568L8.28161 3.1887ZM21.4591 26.0598L19.8599 29.6754L3.49285 24.1342L4.40968 20.2876L5.33585 16.4441L11.8509 18.6498L13.1554 21.2898C13.2914 21.5651 13.6279 21.679 13.9125 21.5461L16.5525 20.2416L23.0582 22.4442L21.4591 26.0598ZM16.6522 36.9035L1.64052 31.8212L3.22556 25.2315L19.3963 30.7062L16.6522 36.9035ZM23.5218 21.4134L16.689 19.1001C16.5488 19.0526 16.3896 19.0612 16.2613 19.1324L13.9122 20.2854L12.7499 17.9332C12.6819 17.7955 12.57 17.6951 12.4298 17.6477L5.6063 15.3375L7.18818 8.75714L26.2659 15.2161L23.5218 21.4134ZM28.8046 14.8878L5.36169 6.95104L6.08322 4.81987L29.5261 12.7567L28.8046 14.8878Z" fill="#E4002B" fill-opacity="0.5"/>
</svg>
