<svg width="48" height="43" viewBox="0 0 48 43" fill="none" xmlns="http://www.w3.org/2000/svg">
<path fill-rule="evenodd" clip-rule="evenodd" d="M33.7498 3.35283C22.6253 -1.88943 10.0658 1.21489 6.52081 10.4105L42.8614 27.5355L45.6301 28.8403C50.4705 20.2672 44.8842 8.59977 33.7498 3.35283ZM41.1791 21.249C40.5836 20.9684 39.8291 21.2314 39.5438 21.8367C39.2633 22.4321 39.5402 23.1569 40.1456 23.4422C40.741 23.7227 41.4862 23.4797 41.7668 22.8842C42.052 22.2789 41.7745 21.5296 41.1791 21.249ZM39.5113 14.9573C38.8861 14.6627 38.1613 14.9396 37.8761 15.545C37.5908 16.1503 37.8526 16.8558 38.4778 17.1504C39.0732 17.431 39.7886 17.1739 40.0692 16.5785C40.3498 15.983 40.1166 15.2425 39.5113 14.9573ZM33.3043 8.67303C33.9295 8.96765 34.6543 8.69068 34.9396 8.08534C35.2248 7.47999 34.9771 6.74474 34.3519 6.45012C33.7564 6.16954 33.0317 6.4465 32.7464 7.05185C32.4612 7.65719 32.7089 8.39245 33.3043 8.67303ZM31.5685 16.3199C30.9433 16.0253 30.2279 16.2825 29.9332 16.9076C29.6527 17.5031 29.9098 18.2185 30.535 18.5131C31.1304 18.7937 31.8458 18.5366 32.1264 17.9411C32.421 17.3159 32.1639 16.6005 31.5685 16.3199ZM22.8799 11.1584C22.2547 10.8638 21.5393 11.1209 21.2588 11.7163C20.9641 12.3415 21.2213 13.0569 21.8464 13.3515C22.4419 13.6321 23.1573 13.375 23.4519 12.7498C23.7424 12.1591 23.4853 11.4436 22.8799 11.1584ZM23.1715 5.34121C22.8909 5.93664 23.148 6.65204 23.7434 6.93263C24.3388 7.21321 25.084 6.97012 25.3646 6.3747C25.6592 5.74951 25.3823 5.02475 24.7769 4.73949C24.1716 4.45423 23.4661 4.71602 23.1715 5.34121ZM15.425 8.6034C16.0204 8.88399 16.7452 8.60702 17.0304 8.00167C17.3157 7.39633 17.0679 6.66108 16.4725 6.38049C15.8771 6.09991 15.1225 6.36284 14.8373 6.96819C14.552 7.57353 14.8296 8.32282 15.425 8.6034ZM36.9876 39.3568L0.607291 22.2131L0.532468 22.3719C-0.313963 24.1681 0.477236 26.3236 2.25358 27.1607L34.9224 42.5555C36.7186 43.4019 38.8648 42.6306 39.7113 40.8344L39.7861 40.6756L36.9876 39.3568ZM38.2362 36.7072L4.67423 20.8916C4.25743 20.6952 3.74643 20.8788 3.55002 21.2956C3.35361 21.7124 3.55129 22.1936 3.96809 22.3901L37.54 38.2104C37.9568 38.4068 38.4287 38.2289 38.6204 37.8221C38.8168 37.4053 38.653 36.9036 38.2362 36.7072ZM13.9664 22.8934C13.9466 22.8841 13.3851 21.3219 12.0851 20.7092C11.321 20.3492 10.4428 20.3598 9.4412 20.761C9.12525 20.891 8.73822 20.7086 8.60761 20.3682C8.25901 19.3065 7.70236 18.5833 6.86523 18.2494L6.42097 19.1922C6.18247 19.6983 6.33339 20.2788 6.77004 20.4845L37.1961 34.8224C37.6328 35.0282 38.1765 34.7751 38.415 34.269L38.8593 33.3262C37.5855 32.7866 36.1056 33.302 36.0963 33.3218C35.7605 33.4425 35.3933 33.2695 35.2925 32.943C35.2726 32.9337 34.7111 31.3715 33.4111 30.7589C32.647 30.3988 31.7688 30.4094 30.7672 30.8106C30.4513 30.9406 30.0643 30.7583 29.9337 30.4178C29.6253 29.3993 29.0745 28.7153 28.3104 28.3552C27.0203 27.7473 25.4376 28.2748 25.4283 28.2947C25.0925 28.4154 24.7253 28.2423 24.6245 27.9159C24.6046 27.9065 24.0432 26.3443 22.7432 25.7317C21.979 25.3716 21.1009 25.3823 20.0993 25.7834C19.7833 25.9135 19.3963 25.7311 19.2657 25.3906C18.9573 24.3722 18.4065 23.6881 17.6424 23.328C16.3523 22.7201 14.7697 23.2477 14.7603 23.2675C14.4298 23.4028 14.0626 23.2298 13.9664 22.8934ZM41.2239 31.3965L6.86801 15.2068C6.3619 14.9683 5.66452 15.3673 5.33718 16.062L5.00047 16.7765C6.98348 16.5831 8.71956 17.3769 9.59025 19.3638C12.0961 18.6528 13.9434 20.0084 14.8959 21.9247C17.0098 21.4534 19.2015 22.0011 20.2483 24.3863C22.7542 23.6752 24.6015 25.0309 25.554 26.9471C27.6679 26.4759 29.8596 27.0236 30.9064 29.4087C33.4122 28.6977 35.2595 30.0533 36.212 31.9696C37.1884 31.7506 38.7025 31.6515 39.9638 32.5006C40.3911 32.7262 40.9052 33.308 41.2004 33.7625L41.5044 33.1174C41.8615 32.4368 41.7101 31.6257 41.2239 31.3965ZM42.3242 28.7013L8.7523 12.881C8.33551 12.6846 7.8245 12.8682 7.64212 13.2552C7.44572 13.672 7.62937 14.183 8.04617 14.3794L41.6181 30.1998C42.0349 30.3962 42.5459 30.2125 42.7423 29.7957C42.9247 29.4087 42.741 28.8977 42.3242 28.7013ZM23.1963 8.0937C21.9757 7.5185 21.4305 6.02461 22.0104 4.79407C22.5996 3.54369 24.0795 3.02831 25.31 3.60818C26.5604 4.19741 27.0851 5.65742 26.4959 6.90781C25.9207 8.12843 24.4467 8.68293 23.1963 8.0937ZM37.9307 18.3115C36.6803 17.7223 36.1649 16.2424 36.7448 15.0119C37.334 13.7615 38.794 13.2367 40.0444 13.826C41.265 14.4012 41.8195 15.8752 41.2303 17.1256C40.6551 18.3462 39.1612 18.8914 37.9307 18.3115ZM20.1374 11.1879C20.7126 9.96726 22.1866 9.41276 23.437 10.002C24.6576 10.5772 25.2028 12.0711 24.6229 13.3016C24.0337 14.552 22.5538 15.0674 21.3233 14.4875C20.0729 13.8983 19.5481 12.4383 20.1374 11.1879ZM29.9878 19.6742C28.7374 19.0849 28.2221 17.6051 28.8019 16.3745C29.3912 15.1241 30.8512 14.5994 32.1016 15.1886C33.3222 15.7638 33.8767 17.2379 33.2875 18.4883C32.7123 19.7089 31.2084 20.2494 29.9878 19.6742ZM13.706 6.43508C14.2952 5.18469 15.7552 4.65996 17.0056 5.24919C18.2262 5.82439 18.7807 7.29843 18.1915 8.54881C17.6163 9.76943 16.1224 10.3146 14.8919 9.7347C13.6415 9.14547 13.1261 7.66562 13.706 6.43508ZM39.6031 24.5933C38.3825 24.0181 37.8373 22.5242 38.4172 21.2937C39.0064 20.0433 40.4863 19.5279 41.7168 20.1078C42.9672 20.697 43.492 22.157 42.9027 23.4074C42.3229 24.638 40.8535 25.1825 39.6031 24.5933ZM32.7712 9.80434C31.5506 9.22914 30.9961 7.75509 31.5853 6.50471C32.1605 5.28409 33.6544 4.73894 34.885 5.31882C36.1354 5.90805 36.6507 7.38791 36.0709 8.61845C35.4816 9.86884 34.0216 10.3936 32.7712 9.80434Z" fill="#E4002B" fill-opacity="0.5"/>
</svg>
